<svg width="36" height="36" viewBox="0 0 36 36" fill="none" xmlns="http://www.w3.org/2000/svg">
<path d="M0 4C0 1.79086 1.79086 0 4 0H32C34.2091 0 36 1.79086 36 4V24C36 30.6274 30.6274 36 24 36H4C1.79086 36 0 34.2091 0 32V4Z" fill="#DC3845"/>
<path d="M17.9999 11.8292C17.0919 10.9943 15.9034 10.5309 14.6699 10.5309C14.017 10.5316 13.3707 10.6614 12.7682 10.9128C12.1657 11.1642 11.6188 11.5323 11.1591 11.9959C9.19824 13.9651 9.19907 17.0451 11.1607 19.0059L17.2707 25.1159C17.4124 25.3651 17.6857 25.5259 17.9999 25.5259C18.1289 25.5246 18.2558 25.4931 18.3704 25.4339C18.4851 25.3748 18.5842 25.2895 18.6599 25.1851L24.8391 19.0059C26.8007 17.0442 26.8007 13.9651 24.8374 11.9926C24.3779 11.5298 23.8315 11.1625 23.2295 10.9116C22.6276 10.6608 21.982 10.5314 21.3299 10.5309C20.0964 10.5311 18.908 10.9944 17.9999 11.8292ZM23.6591 13.1709C24.9616 14.4801 24.9624 16.5251 23.6607 17.8276L17.9999 23.4884L12.3391 17.8276C11.0374 16.5251 11.0382 14.4801 12.3374 13.1742C12.9707 12.5442 13.7991 12.1976 14.6699 12.1976C15.5407 12.1976 16.3657 12.5442 16.9941 13.1726L17.4107 13.5892C17.4881 13.6667 17.5799 13.7281 17.681 13.77C17.7821 13.812 17.8905 13.8336 17.9999 13.8336C18.1093 13.8336 18.2177 13.812 18.3188 13.77C18.4199 13.7281 18.5117 13.6667 18.5891 13.5892L19.0057 13.1726C20.2657 11.9151 22.4007 11.9184 23.6591 13.1709Z" fill="white"/>
</svg>
